<svg width="222" height="30" viewBox="0 0 222 30" fill="none" xmlns="http://www.w3.org/2000/svg">
<g clip-path="url(#clip0)">
<path d="M43.6357 14.1647C43.6168 13.9362 43.5789 13.3652 42.6492 13.3652C41.9852 13.3652 41.7573 13.7836 41.7573 14.0698C41.7573 14.6407 42.5356 14.9641 43.3707 15.2116C45.1545 15.7067 47.0525 16.2396 47.0525 18.5227C47.0525 20.7495 45.0977 22.12 42.7635 22.12C41.169 22.12 38.7591 21.3964 38.4744 18.6183H41.6058C41.7391 19.5887 42.6688 19.5887 42.8013 19.5887C43.3328 19.5887 43.9022 19.2842 43.9022 18.7702C43.9022 17.9518 43.1239 17.8568 41.1122 17.0764C39.7456 16.639 38.6069 15.7439 38.6069 14.3166C38.6069 12.2233 40.505 10.8339 42.687 10.8339C44.0726 10.8339 46.4635 11.3859 46.7293 14.1647H43.6357Z" fill="white"/>
<path d="M53.783 11.4639H55.301V13.8616H53.783L53.7641 22.1439H50.6137L50.6327 13.8616H49.0768V11.4639H50.6327V8.10574H53.783V11.4639Z" fill="white"/>
<path d="M68.7775 22.1101H65.6271V20.63H65.5893C65.0578 21.658 63.7487 22.1333 62.5147 22.1333C59.1743 22.1333 57.2202 19.5071 57.2202 16.4808C57.2202 13.0171 59.7065 10.8473 62.5147 10.8473C64.2416 10.8473 65.2092 11.6847 65.5893 12.3316H65.6271V10.8248H68.7775V22.1101ZM62.9887 19.1836C64.9624 19.1836 65.6264 17.5088 65.6264 16.4815C65.6264 15.206 64.7535 13.7983 62.9697 13.7983C61.167 13.7983 60.3698 15.3206 60.3698 16.5202C60.3698 17.5088 61.0913 19.1836 62.9887 19.1836Z" fill="white"/>
<path d="M72.054 10.8283H75.0144V12.6705H75.0522C75.318 12.1565 75.8684 10.8283 77.69 10.8283V14.3644C76.2288 14.4023 75.2037 14.7068 75.2037 16.3057V22.1101H72.0533V10.8283H72.054Z" fill="white"/>
<path d="M84.4423 11.3669H85.9603V13.7646H84.4423L84.4135 22.153H81.2632L81.2919 13.7646H79.736V11.3669H81.2919V7.84628H84.4423V11.3669Z" fill="white"/>
<path d="M97.7777 22.1333H94.7985V20.6349H94.7606C94.1155 21.9864 92.8247 22.1003 92.0275 22.1003C91.3824 22.1003 89.8637 21.9477 88.9339 20.7678C88.0988 19.7208 87.9852 18.9601 87.9852 17.5137V10.8283H91.1356V17.0384C91.1356 17.7612 91.1356 19.1506 92.8247 19.1506C93.7355 19.1506 94.6274 18.6746 94.6274 16.9997V10.8248H97.7777V22.1333Z" fill="white"/>
<path d="M101.055 10.8698H104.015V12.3478H104.034H104.072C104.698 11.5483 105.742 10.8255 107.355 10.8255C111.094 10.8255 112.498 14.1176 112.498 16.5729C112.498 19.6182 110.373 22.1108 107.374 22.1108C105.476 22.1108 104.584 21.1974 104.205 20.7973V25.27H101.054V10.8698H101.055ZM109.348 16.4773C109.348 15.2215 108.438 13.7744 106.711 13.7744C104.984 13.7744 104.073 15.2208 104.073 16.4773C104.073 17.8097 105.059 19.1604 106.711 19.1604C108.362 19.1604 109.348 17.8097 109.348 16.4773Z" fill="white"/>
<path d="M126.453 14.1555C126.434 13.927 126.396 13.3561 125.466 13.3561C124.801 13.3561 124.574 13.7744 124.574 14.0606C124.574 14.6315 125.353 14.955 126.188 15.2025C127.971 15.6975 129.869 16.2305 129.869 18.5136C129.869 20.7404 127.915 22.1108 125.58 22.1108C123.987 22.1108 121.576 21.3873 121.291 18.6092H124.423C124.555 19.5795 125.485 19.5795 125.618 19.5795C126.15 19.5795 126.719 19.2751 126.719 18.7611C126.719 17.9426 125.941 17.8477 123.929 17.0672C122.563 16.6299 121.425 15.7348 121.425 14.3074C121.425 12.2142 123.322 10.8248 125.505 10.8248C126.89 10.8248 129.281 11.3767 129.547 14.1555H126.453Z" fill="white"/>
<path d="M144.703 22.0665H141.553V20.6075H141.515C140.984 21.6355 139.674 22.1108 138.441 22.1108C135.1 22.1108 133.146 19.4846 133.146 16.4583C133.146 12.9946 135.632 10.8248 138.441 10.8248C140.167 10.8248 141.136 11.6622 141.515 12.3091H141.553V10.8691H144.703V22.0665ZM138.915 19.1604C140.889 19.1604 141.553 17.4856 141.553 16.4583C141.553 15.1828 140.68 13.7751 138.896 13.7751C137.093 13.7751 136.296 15.2974 136.296 16.497C136.296 17.4863 137.017 19.1604 138.915 19.1604Z" fill="white"/>
<path d="M157.773 22.108H154.793V20.668H154.755C154.11 22.0194 152.819 22.1333 152.022 22.1333C151.377 22.1333 149.858 21.9807 148.929 20.8009C148.094 19.7539 147.98 18.9931 147.98 17.5468V10.9113H151.13V17.0714C151.13 17.7943 151.13 19.1837 152.819 19.1837C153.73 19.1837 154.622 18.7076 154.622 17.0328V10.9113H157.772V22.108H157.773Z" fill="white"/>
<path d="M172.597 22.108H169.599V20.649H169.561C169.295 21.087 168.536 22.1333 166.411 22.1333C163.223 22.1333 161.135 19.659 161.135 16.4808C161.135 12.9025 163.678 10.867 166.353 10.867C168.213 10.867 169.105 11.7803 169.447 12.1228V8.10855H172.597V22.108ZM166.923 19.1836C168.896 19.1836 169.617 17.5657 169.617 16.4625C169.617 15.187 168.706 13.8173 166.961 13.8173C165.139 13.8173 164.285 15.2447 164.285 16.4625C164.285 18.0987 165.442 19.1836 166.923 19.1836Z" fill="white"/>
<path d="M187.346 22.089H184.196V20.63H184.158C183.627 21.658 182.317 22.1333 181.083 22.1333C177.743 22.1333 175.789 19.5071 175.789 16.4808C175.789 13.0171 178.275 10.8473 181.083 10.8473C182.81 10.8473 183.778 11.6847 184.158 12.3316H184.196V10.8916H187.346V22.089ZM181.558 19.1836C183.532 19.1836 184.196 17.5088 184.196 16.4815C184.196 15.206 183.323 13.7983 181.538 13.7983C179.736 13.7983 178.939 15.3206 178.939 16.5202C178.939 17.5088 179.66 19.1836 181.558 19.1836ZM185.278 7.59244L180.324 9.95357L179.432 8.08815L184.196 5.52029L185.278 7.59244Z" fill="white"/>
<path d="M197.417 21.9625H194.4L190.623 10.7657H193.887L195.899 17.9848H195.937L197.949 10.7657H201.213L197.417 21.9625Z" fill="white"/>
<path d="M215.212 18.4376C214.7 19.6175 213.96 20.5309 213.068 21.1398C212.195 21.7677 211.151 22.0911 210.07 22.0911C207.052 22.0911 204.49 19.6358 204.49 16.4963C204.49 13.5466 206.805 10.8248 210.012 10.8248C213.219 10.8248 215.573 13.375 215.573 16.5912C215.573 17.0096 215.535 17.1811 215.497 17.4286H207.603C207.792 18.6844 208.836 19.4269 210.07 19.4269C211.038 19.4269 211.551 18.9896 211.987 18.4376H215.212ZM212.422 15.2974C212.29 14.6695 211.663 13.4897 210.031 13.4897C208.399 13.4897 207.773 14.6695 207.64 15.2974H212.422Z" fill="white"/>
<path d="M222 22.1453H218.85V8.06213H222" fill="white"/>
<path d="M35.641 9.08736C35.641 4.11619 31.6226 0.0865173 26.6654 0.0865173C22.5572 0.0865173 19.097 2.85547 18.0312 6.63271C16.8925 2.84562 13.3881 0.0865173 9.23998 0.0865173C9.20773 0.0865173 9.17618 0.0886267 9.14392 0.0886267C9.10676 0.0879236 9.0703 0.0865173 9.03314 0.0865173C4.07589 0.0865173 5.31599e-06 4.04658 0.0567998 9.08736C0.057501 9.12463 0.0589033 9.16189 0.0589033 9.19916C0.0589033 9.2308 0.0567998 9.26244 0.0567998 9.29479C0.0567998 9.78979 0.0967663 10.275 0.171791 10.7489C0.185113 10.8389 0.202643 10.9429 0.227183 11.0611C0.33306 11.6081 0.488017 12.1376 0.686448 12.6452C2.05092 16.4977 6.38623 24.389 17.884 29.9944C18.5276 30.3087 34.2099 18.6788 35.4138 11.1047H35.4124C35.5604 10.4557 35.641 9.78136 35.641 9.08736ZM3.31723 9.29479C3.31723 8.06852 3.68814 6.92873 4.3234 5.98231C5.30083 4.68784 6.7291 3.75478 8.37474 3.41938C8.65731 3.3779 8.94549 3.3554 9.23998 3.3554C12.5109 3.3554 15.162 6.01395 15.162 9.29408C15.162 12.5742 12.5102 15.2328 9.23998 15.2328C5.96974 15.2328 3.31723 12.5742 3.31723 9.29479ZM31.1157 12.288C30.2063 18.0087 18.3615 26.793 17.8748 26.5554C12.9414 24.1506 9.45314 21.047 7.10212 18.2492C7.78786 18.4131 8.50305 18.5023 9.23858 18.5023C14.3101 18.5023 18.4211 14.3799 18.4211 9.29408C18.4211 9.18791 18.4169 9.08244 18.4133 8.97697L18.4155 8.97837L18.4211 9.29408C18.6973 9.16822 19.4707 5.40152 25.7994 4.41994C26.3905 4.32854 26.9991 4.41291 27.5341 4.68151C29.7589 5.79668 31.2868 8.10086 31.2868 10.7643C31.2868 11.2882 31.2258 11.7972 31.1136 12.2873L31.1157 12.288Z" fill="#E6E7E8"/>
<g opacity="0.44">
<path opacity="0.44" d="M18.414 7.92578C18.4175 8.03125 18.4217 8.13672 18.4217 8.2429L18.4161 7.92719L18.414 7.92578Z" fill="#7697CE"/>
<path opacity="0.44" d="M35.6249 8.56558C35.5947 9.07325 35.5225 9.56966 35.4117 10.052H35.4131C34.2099 17.6262 18.5276 29.2561 17.8839 28.9425C6.3862 23.3371 2.05018 15.4458 0.686411 11.5933C0.488682 11.0856 0.333023 10.5562 0.227146 10.0091C0.202605 9.89099 0.184375 9.78693 0.171754 9.69693C0.118465 9.35942 0.083407 9.01559 0.0672802 8.66613C0.0609697 8.80605 0.0567627 8.94598 0.0567627 9.08731C0.0567627 9.12458 0.0588662 9.16184 0.0588662 9.19911C0.0588662 9.23075 0.0567627 9.26239 0.0567627 9.29473C0.0567627 9.78974 0.0967292 10.2749 0.171754 10.7488C0.185076 10.8388 0.202605 10.9429 0.227146 11.061C0.333023 11.6081 0.48798 12.1375 0.686411 12.6452C2.05088 16.4977 6.3862 24.389 17.8839 29.9944C18.5276 30.3087 34.2099 18.6788 35.4138 11.1046H35.4124C35.5604 10.4563 35.641 9.78201 35.641 9.08801C35.641 8.91223 35.6347 8.73855 35.6249 8.56558Z" fill="#BCBEC0"/>
<path opacity="0.41" d="M30.4026 6.35425C29.1061 4.07257 26.3639 3.05232 23.8537 3.80116C19.3024 5.15821 18.6664 8.13177 18.421 8.24357C18.421 13.3294 14.3101 17.4518 9.23854 17.4518C8.81574 17.4518 8.40065 17.4223 7.99327 17.3661C7.55855 17.3063 7.12172 17.5693 7.04039 18.0017C7.01795 18.1233 7.03548 18.2478 7.15888 18.3786C7.49614 18.4165 8.89076 18.503 9.23854 18.503C14.3101 18.503 18.421 14.3805 18.421 9.29476C18.421 9.18859 18.4168 9.08312 18.4133 8.97765L18.4154 8.97905L18.4217 9.29476C18.6103 8.93897 19.4538 5.69822 25.303 4.49234C26.5258 4.24062 27.5292 4.51906 28.4737 5.25243C30.0583 6.48292 31.1521 8.18662 31.265 10.2292C31.2783 10.0591 31.2874 9.8875 31.2874 9.71383C31.2874 8.49108 30.9656 7.34496 30.4026 6.35425Z" fill="#3D507D"/>
</g>
<path d="M18.0305 6.5462C18.0305 6.5462 17.4394 10.4022 14.7932 12.9356C14.6754 13.0481 14.5618 13.1634 14.4566 13.2879C13.9588 13.8757 11.7564 16.1384 8.03673 15.4725C8.03673 15.4725 4.73213 14.8671 3.84656 13.7337C3.84656 13.7337 7.37623 17.8934 7.43864 17.8934C7.50104 17.8934 12.6813 17.5004 12.6813 17.5004L15.9515 15.2334L17.8825 11.7051L18.5016 7.85544L18.0305 6.5462Z" fill="#D1D3D4"/>
<path d="M18.4358 9.14357L18.4218 9.11685L18.0642 6.78314C18.0537 6.81971 18.0411 6.85627 18.0305 6.89283C18.0207 6.85908 18.0088 6.82674 17.9983 6.79299L18.4218 9.5549" fill="#7697CE"/>
<path d="M7.83344 16.0252C7.82502 16.0238 7.81731 16.0216 7.8089 16.0202C6.41988 15.7397 5.3457 14.9332 4.30306 13.9713C2.84884 12.6311 1.58604 9.90999 1.71155 7.57558C1.71155 7.57558 1.71295 4.18576 2.87338 2.49683C2.87338 2.49683 0.936056 4.79538 0.702567 5.64195C0.715188 5.56953 0.727108 5.49711 0.741132 5.42398C0.523069 5.94852 0.34988 6.50118 0.231383 7.07846C0.22367 7.11502 0.218061 7.15159 0.211049 7.18815C0.204038 7.21909 0.195624 7.25002 0.189313 7.28096C0.0897473 7.76542 0.0315505 8.24918 0.00911312 8.72802C0.00350379 8.81872 0.000699118 8.92419 0.000699118 9.04513C-0.00561139 9.60272 0.0399645 10.1526 0.131116 10.6898C0.152852 10.8445 0.177393 11.0062 0.204739 11.1742C0.378628 12.2219 0.77619 13.2218 1.39041 14.088C2.99889 16.357 5.2875 17.4778 5.2875 17.4778C5.92626 17.7774 6.86092 18.1402 7.58172 18.2893C12.5488 19.3158 17.2592 15.8824 18.2829 10.9014L18.3797 9.16607C17.2999 13.9221 12.635 16.9814 7.83344 16.0252Z" fill="white"/>
<path d="M18.3004 10.7952C18.3004 10.7952 18.4491 9.73067 18.4218 9.55489L18.3727 9.23004L18.3201 9.60059L18.243 9.79818L18.0999 10.9506L18.177 11.0202L18.2752 10.9316L18.3004 10.7952Z" fill="#6583C2"/>
<path d="M4.30308 14.2026C5.34641 15.1645 6.4199 15.9703 7.80891 16.2516C7.81732 16.253 7.82504 16.2551 7.83345 16.2565C12.6112 17.2086 17.2529 14.183 18.3615 9.46632L18.379 9.15272C17.2992 13.9087 12.6343 16.9681 7.83345 16.0118C7.82504 16.0104 7.81732 16.0083 7.80891 16.0069C6.4199 15.7263 5.34571 14.9198 4.30308 13.958C2.95193 12.7127 1.76766 10.2763 1.70736 8.06497C1.68211 10.3389 2.90214 12.911 4.30308 14.2026Z" fill="#D1D3D4"/>
<path d="M26.4508 3.63452C26.4508 3.63452 30.6094 2.81185 33.6224 5.86205C33.6224 5.86205 35.6235 8.31459 35.641 9.20898V9.86571C35.641 9.86571 31.0463 3.21123 26.9122 3.7871L24.9012 3.9228L26.4508 3.63452Z" fill="#D1D3D4"/>
<path d="M18.4141 8.89114C18.4176 8.99661 18.4218 9.10208 18.4218 9.20826L18.4162 8.89255L18.4141 8.89114Z" fill="#6583C2"/>
<path d="M26.6654 0C22.5572 0 19.097 2.76895 18.0312 6.5462C18.0214 6.51244 18.0095 6.4801 17.999 6.44635L18.4225 9.20827C18.4225 9.1021 18.4183 8.99662 18.4148 8.89115L18.4169 8.89256L18.4225 9.20827C18.5683 9.14147 18.8544 8.05583 20.0274 6.90339C21.6626 4.69835 24.2793 3.26958 27.2305 3.26958C31.0806 3.26958 34.3635 5.70103 35.6382 9.11616C35.6389 9.07749 35.6417 9.04022 35.6417 9.00155C35.641 4.02967 31.6226 0 26.6654 0Z" fill="white"/>
<path d="M18.4196 9.29477C18.4196 9.26594 18.4217 9.23781 18.4217 9.20828L18.3909 9.22024C18.4007 9.24555 18.4105 9.26945 18.4196 9.29477Z" fill="#6583C2"/>
<path d="M18.4161 9.2399L18.4217 9.5556C18.5676 9.48881 18.8537 8.40317 20.0267 7.25073C21.6618 5.04569 24.2786 3.61692 27.2298 3.61692C31.0799 3.61692 34.3628 6.04836 35.6375 9.46349C35.6382 9.42482 35.641 9.38756 35.641 9.34888C35.641 9.23568 35.6368 9.12388 35.6326 9.01138C34.3544 5.60328 31.075 3.17816 27.2298 3.17816C24.2786 3.17816 21.6618 4.60693 20.0267 6.81197C18.8537 7.96511 18.5676 9.05075 18.4217 9.11685" fill="#D1D3D4"/>
</g>
<defs>
<clipPath id="clip0">
<rect width="222" height="30" fill="white"/>
</clipPath>
</defs>
</svg>
